<svg xmlns="http://www.w3.org/2000/svg" version="1.1" xmlns:xlink="http://www.w3.org/1999/xlink" xmlns:svgjs="http://svgjs.dev/svgjs" width="1000" height="1000" viewBox="0 0 1000 1000"><g transform="matrix(1,0,0,1,0,0.0003360217697832013)"><svg viewBox="0 0 280 280" data-background-color="#f2f2f2" preserveAspectRatio="xMidYMid meet" height="1000" width="1000" xmlns="http://www.w3.org/2000/svg" xmlns:xlink="http://www.w3.org/1999/xlink"><g id="tight-bounds" transform="matrix(1,0,0,1,0,-0.00009408609554384384)"><svg viewBox="0 0 280 280" height="280" width="280"><g><svg viewBox="0 0 280 280" height="280" width="280"><g><svg viewBox="0 0 280 280" height="280" width="280"><g id="textblocktransform"><svg viewBox="0 0 280 280" height="280" width="280" id="textblock"><g><svg viewBox="0 0 280 280" height="280" width="280"><g transform="matrix(1,0,0,1,74.00336708925556,84.95352935965055)"><svg viewBox="0 0 131.99326582148888 110.09294128069891" height="110.09294128069891" width="131.99326582148888"><g><svg xmlns="http://www.w3.org/2000/svg" xmlns:xlink="http://www.w3.org/1999/xlink" version="1.1" x="0" y="0" viewBox="4.562997341156006 13.694775581359863 93.37500762939453 77.8822250366211" enable-background="new 0 0 100 100" xml:space="preserve" height="110.09294128069891" width="131.99326582148888" class="icon-o-0" data-fill-palette-color="accent" id="o-0"><path fill-rule="evenodd" clip-rule="evenodd" d="M95.934 26.48l-3.713 8.296c-1.01 1.928-2.794 3.025-5.35 3.293h-1.395c-1.708-0.105-3.567-0.14-5.577-0.105-2.429 0.395-4.59 0.912-6.483 1.551-1.511 0.5-3.027 0.576-4.55 0.227-0.615-0.174-1.487-0.512-2.614-1.011-0.418-0.209-1.487-0.931-3.207-2.162-1.789-1.29-3.485-2.329-5.089-3.119-1.405-0.768-4.101-2.046-8.087-3.835-2.277-1.104-3.753-2.097-4.426-2.979-0.663-0.895-0.75-1.976-0.262-3.242 0.267-0.72 0.808-1.255 1.621-1.604 1.138-0.581 2.498-0.535 4.079 0.14 1.904 0.86 3.224 1.453 3.956 1.778 1.29 0.581 3.317 1.325 6.082 2.23 0.942 0.291 1.883 0.489 2.823 0.593h1.203l-1.08-0.488c-6.356-2.916-10.533-4.799-12.531-5.647-1.952-0.813-3.643-0.941-5.072-0.382-1.383 0.581-2.335 1.417-2.858 2.509-0.279 0.616-0.471 1.447-0.575 2.492-0.744-0.046-2.26-0.111-4.549-0.192-4.799 2.313-7.401 3.544-7.808 3.695-0.941 0.314-1.906 0.488-2.893 0.523-1.081-0.024-1.876-0.216-2.388-0.576-0.604-0.255-1.034-0.895-1.29-1.917-0.175-1.047 0.737-2.179 2.736-3.399l10.596-6.867c5.101-0.603 10.08-1.423 14.937-2.457 1.068-0.244 2.103-0.145 3.102 0.296 3.115 1.604 6.659 3.23 10.632 4.88 1.977 0.813 3.887 1.575 5.734 2.284 3.277 1.057 6.024 1.667 8.244 1.83h0.018c2.439 0.023 7.784-0.941 16.034-2.894C98.606 19.631 98.606 21.717 95.934 26.48z" fill="#ee628f" data-fill-palette-color="accent"></path><path fill-rule="evenodd" clip-rule="evenodd" d="M25.73 31.831c3.405 5.019 6.298 10.091 8.68 15.215 3.764 8.168 5.49 15.047 5.176 20.636-0.058 0.302-0.209 0.604-0.453 0.906-0.348 0.384-0.604 0.61-0.767 0.68-4.276 1.371-8.511 1.731-12.706 1.081-6.309-1.139-11.741-4.619-16.295-10.439 0.825-7.576 2.347-13.485 4.566-17.726l2.962-4.113C19.567 35.154 22.512 33.075 25.73 31.831z" fill="#ee628f" data-fill-palette-color="accent"></path><path fill-rule="evenodd" clip-rule="evenodd" d="M79.011 48.388c-0.709-0.917-1.587-1.476-2.632-1.672-9.572 0.235-14.992-1.101-16.261-4.009-2.406-5.798-6.397-9.499-11.974-11.102-5.577-1.592-11.648-0.93-18.213 1.986 2.893 4.613 5.287 9.132 7.18 13.56 3.509 7.878 5.072 14.617 4.688 20.218 0 1.022-0.389 1.992-1.167 2.91-0.686 0.93-1.511 1.546-2.475 1.849-3.01 1.01-7.129 1.301-12.357 0.871-5.24-0.442-10.904-3.167-16.993-8.175-1.385 6.83-2.799 11.271-4.244 13.324 14.306 8.29 28.217 12.767 41.733 13.429 2.091-7.355 3.184-11.137 3.277-11.346 0.523-1.36 0.837-2.133 0.941-2.318 0.244-0.406 0.546-0.784 0.906-1.133 0.789-0.778 1.69-1.243 2.702-1.395 5.959-0.813 11.095-2.66 15.406-5.542 6.519-4.321 9.997-10.521 10.439-18.597C80.063 50.224 79.742 49.271 79.011 48.388zM53.181 50.445c-0.686 0.674-1.51 1.01-2.475 1.01-0.988 0-1.818-0.336-2.493-1.01-0.685-0.674-1.028-1.505-1.028-2.492 0-0.977 0.343-1.802 1.028-2.475 0.674-0.674 1.504-1.012 2.493-1.012 0.965 0 1.789 0.337 2.475 1.012 0.675 0.673 1.012 1.498 1.012 2.475C54.192 48.939 53.855 49.771 53.181 50.445z" fill="#ee628f" data-fill-palette-color="accent"></path></svg></g></svg></g><g><path d="M35.899 196.59V196.59C32.932 197.677 30.318 197.642 28.055 196.485 25.801 195.331 24.084 193.143 22.903 189.921V189.921L22.163 187.902 13.356 191.129 10.728 183.959 37.279 174.227 40.647 183.417C41.876 186.77 42.067 189.557 41.219 191.777 40.371 193.996 38.598 195.601 35.899 196.59ZM34.111 183.522L28.015 185.756 28.495 187.065C28.89 188.144 29.507 188.89 30.344 189.304 31.182 189.718 32.133 189.73 33.199 189.339V189.339C34.988 188.684 35.518 187.362 34.789 185.373V185.373ZM35.686 230.665L31.078 223.685 34.736 219.611 29.673 211.941 24.462 213.663 19.838 206.658 48.623 198.716 54.235 207.217ZM35.781 209.807L39.094 214.826 42.297 211.256C42.998 210.451 43.922 209.427 45.067 208.186 46.212 206.945 47.045 206.073 47.564 205.571V205.571C46.948 205.843 45.916 206.249 44.469 206.792 43.025 207.339 40.129 208.344 35.781 209.807ZM63.604 227.759L47.993 243.31 42.603 237.9 58.214 222.348 53.337 217.452 57.76 213.046 72.883 228.227 68.46 232.633ZM63.249 256.228L57.163 251.549 74.397 229.129 80.484 233.808ZM91.469 246.684L81.08 266.117 74.345 262.516 84.733 243.083 78.639 239.826 81.582 234.32 100.48 244.422 97.536 249.927ZM117.955 278.341L109.905 276.07 110.011 270.596 101.166 268.101 98.348 272.81 90.269 270.53 106.863 245.705 116.667 248.471ZM104.393 262.493L110.181 264.126 110.272 259.33C110.277 258.263 110.307 256.885 110.362 255.197 110.418 253.509 110.478 252.305 110.543 251.585V251.585C110.254 252.194 109.739 253.176 108.998 254.533 108.263 255.891 106.728 258.544 104.393 262.493ZM142.148 271.896V271.896C142.006 273.643 141.436 275.158 140.438 276.442 139.441 277.726 138.075 278.674 136.34 279.285 134.612 279.903 132.622 280.121 130.373 279.937V279.937C128.494 279.784 126.93 279.523 125.681 279.155 124.433 278.786 123.147 278.219 121.824 277.451V277.451L122.378 270.663C123.766 271.529 125.227 272.234 126.761 272.779 128.295 273.324 129.717 273.65 131.027 273.756V273.756C132.158 273.849 133.005 273.721 133.566 273.374 134.127 273.027 134.432 272.546 134.483 271.93V271.93C134.514 271.54 134.436 271.194 134.248 270.892 134.06 270.584 133.743 270.262 133.298 269.925 132.851 269.596 131.65 268.892 129.693 267.813V267.813C127.923 266.823 126.609 265.9 125.753 265.044 124.898 264.182 124.29 263.226 123.929 262.178 123.569 261.123 123.445 259.904 123.558 258.521V258.521C123.77 255.921 124.882 253.974 126.892 252.679 128.896 251.377 131.552 250.861 134.861 251.131V251.131C137.778 251.369 140.697 252.287 143.617 253.884V253.884L140.805 259.579C138.271 258.153 136.044 257.362 134.125 257.205V257.205C133.14 257.125 132.408 257.238 131.93 257.546 131.451 257.86 131.191 258.275 131.149 258.791V258.791C131.104 259.34 131.348 259.856 131.882 260.339 132.422 260.823 133.908 261.747 136.341 263.111V263.111C138.68 264.4 140.271 265.712 141.115 267.047 141.959 268.374 142.303 269.991 142.148 271.896ZM164.398 267.256L166.197 277.717 158.778 278.993 153.986 251.123 170.452 248.292 171.492 254.337 162.444 255.893 163.359 261.211 171.7 259.777 172.739 265.822ZM195.143 262.534L197.224 268.399 181.403 274.013 171.946 247.363 187.767 241.748 189.818 247.529 181.194 250.589 182.683 254.784 190.669 251.95 192.717 257.721 184.731 260.555 186.519 265.594ZM219.35 255.798L203.28 265.025 189.2 240.501 195.823 236.698 206.83 255.868 216.277 250.445ZM230.132 247.275L224.075 251.991 206.702 229.678 212.76 224.962ZM227.695 217.209V217.209C226.468 218.552 226.059 220.102 226.467 221.86 226.88 223.612 228.055 225.373 229.991 227.141V227.141C234.005 230.808 237.407 231.114 240.196 228.06V228.06C241.042 227.134 241.732 226.123 242.265 225.028 242.802 223.927 243.29 222.773 243.729 221.564V221.564L248.5 225.922C247.676 228.37 246.261 230.692 244.256 232.888V232.888C241.377 236.039 238.256 237.621 234.892 237.632 231.529 237.644 228.119 236.071 224.663 232.915V232.915C222.502 230.941 220.974 228.799 220.08 226.49 219.186 224.182 218.997 221.86 219.511 219.525 220.025 217.189 221.225 214.99 223.11 212.927V212.927C225.174 210.667 227.633 208.958 230.489 207.8V207.8L233.352 213.583C232.292 214.026 231.285 214.518 230.332 215.059 229.38 215.61 228.5 216.326 227.695 217.209ZM257.181 202.995L262.461 206.29 253.572 220.532 229.582 205.56 238.471 191.318 243.674 194.565 238.829 202.328 242.605 204.685 247.092 197.496 252.287 200.739 247.8 207.927 252.336 210.758ZM263.849 179.478V179.478C265.481 180.116 266.769 181.097 267.712 182.422 268.656 183.746 269.171 185.326 269.257 187.164 269.353 188.997 268.99 190.965 268.167 193.067V193.067C267.481 194.823 266.782 196.246 266.07 197.336 265.359 198.426 264.445 199.494 263.33 200.541V200.541L256.987 198.06C258.216 196.979 259.311 195.783 260.273 194.47 261.236 193.157 261.957 191.889 262.435 190.665V190.665C262.849 189.607 262.97 188.76 262.799 188.123 262.627 187.486 262.254 187.055 261.679 186.83V186.83C261.315 186.687 260.961 186.663 260.617 186.757 260.268 186.848 259.868 187.059 259.418 187.389 258.975 187.721 257.955 188.67 256.36 190.234V190.234C254.902 191.646 253.641 192.638 252.575 193.212 251.504 193.784 250.414 194.092 249.306 194.136 248.192 194.178 246.989 193.946 245.697 193.441V193.441C243.267 192.491 241.721 190.867 241.059 188.569 240.388 186.275 240.657 183.583 241.866 180.492V180.492C242.932 177.765 244.65 175.233 247.018 172.895V172.895L251.665 177.225C249.571 179.243 248.174 181.148 247.473 182.941V182.941C247.112 183.862 247.011 184.596 247.168 185.142 247.331 185.691 247.654 186.059 248.136 186.248V186.248C248.649 186.448 249.214 186.363 249.83 185.991 250.448 185.612 251.76 184.454 253.765 182.516V182.516C255.673 180.646 257.387 179.499 258.907 179.074 260.421 178.647 262.069 178.782 263.849 179.478Z" fill="#3587a4" data-fill-palette-color="primary"></path><path d="M20.786 82.124V82.124C23.691 83.245 25.601 84.969 26.518 87.294 27.441 89.621 27.294 92.361 26.077 95.513V95.513L25.313 97.492 33.942 100.824 31.23 107.846 5.222 97.803 8.697 88.802C9.965 85.52 11.635 83.333 13.707 82.24 15.776 81.139 18.136 81.101 20.786 82.124ZM13.609 92.972L19.581 95.279 20.076 93.997C20.483 92.944 20.513 91.991 20.166 91.139 19.813 90.284 19.113 89.654 18.067 89.25V89.25C16.314 88.573 15.061 89.21 14.308 91.161V91.161ZM54.228 66.575L49.596 73.384 44.501 71.58 39.405 79.072 42.932 83.181 38.278 90.023 20.254 66.755 25.904 58.448ZM35.179 74.307L38.517 69.4 34.052 67.82C33.056 67.479 31.777 67.023 30.215 66.45 28.652 65.869 27.547 65.434 26.9 65.146V65.146C27.374 65.605 28.131 66.393 29.17 67.509 30.209 68.626 32.212 70.892 35.179 74.307ZM48.543 42.034L63.757 57.53 58.379 62.811 43.165 47.314 38.312 52.079 33.994 47.681 49.071 32.878 53.389 37.276ZM76.784 46.788L70.742 51.345 53.955 29.085 59.997 24.528ZM81.349 19.83L91.455 39.052 84.783 42.56 74.678 23.337 68.658 26.502 65.79 21.046 84.492 11.214 87.36 16.67ZM123.567 28.868L115.633 31.073 112.909 26.404 104.179 28.831 104.216 34.246 96.244 36.462 97.517 7.057 107.197 4.367ZM104.032 22.464L109.75 20.875 107.362 16.784C106.821 15.88 106.14 14.706 105.318 13.26 104.5 11.806 103.938 10.76 103.629 10.122V10.122C103.695 10.779 103.764 11.87 103.836 13.393 103.908 14.916 103.973 17.94 104.032 22.464ZM141.982 19.104V19.104C142.12 20.825 141.803 22.389 141.03 23.796 140.264 25.203 139.087 26.343 137.499 27.216 135.911 28.09 134.009 28.616 131.792 28.794V28.794C129.94 28.943 128.378 28.939 127.106 28.781 125.828 28.624 124.485 28.276 123.077 27.736V27.736L122.539 21.047C124.034 21.666 125.569 22.119 127.143 22.405 128.725 22.697 130.161 22.792 131.451 22.688V22.688C132.57 22.598 133.371 22.337 133.856 21.905 134.348 21.479 134.569 20.962 134.52 20.353V20.353C134.49 19.97 134.357 19.644 134.122 19.377 133.894 19.108 133.537 18.848 133.05 18.594 132.564 18.34 131.282 17.843 129.205 17.105V17.105C127.332 16.429 125.912 15.741 124.943 15.04 123.974 14.338 123.231 13.506 122.714 12.542 122.197 11.571 121.883 10.401 121.773 9.031V9.031C121.568 6.477 122.337 4.407 124.081 2.822 125.832 1.243 128.335 0.322 131.591 0.061V0.061C134.469-0.171 137.457 0.259 140.555 1.348V1.348L138.718 7.33C136.022 6.348 133.731 5.932 131.845 6.084V6.084C130.866 6.163 130.168 6.392 129.753 6.772 129.336 7.145 129.149 7.586 129.19 8.095V8.095C129.233 8.638 129.554 9.102 130.151 9.487 130.755 9.878 132.35 10.542 134.936 11.479V11.479C137.418 12.365 139.175 13.386 140.207 14.542 141.239 15.704 141.831 17.225 141.982 19.104ZM163.427 19.644L161.679 29.962 154.365 28.722 159.023 1.234 175.261 3.986 174.251 9.945 165.327 8.432 164.439 13.675 172.666 15.069 171.654 21.038ZM190.794 32.312L188.767 38.112 173.145 32.653 182.342 6.333 197.964 11.792 195.971 17.498 187.454 14.522 186.006 18.667 193.892 21.423 191.899 27.129 184.012 24.373 182.278 29.336ZM207.15 48.781L191.246 39.805 204.95 15.525 211.506 19.225 200.792 38.207 210.14 43.483ZM215.352 55.431L209.338 50.838 226.259 28.68 232.274 33.273ZM242.886 52.474V52.474C241.661 51.165 240.169 50.647 238.408 50.922 236.652 51.191 234.833 52.206 232.952 53.965V53.965C229.029 57.633 228.462 60.957 231.25 63.94V63.94C232.089 64.837 233.031 65.591 234.076 66.204 235.117 66.812 236.211 67.38 237.358 67.907V67.907L232.711 72.252C230.372 71.258 228.199 69.687 226.19 67.539V67.539C223.316 64.464 222.003 61.276 222.25 57.973 222.502 54.666 224.313 51.437 227.683 48.286V48.286C229.792 46.314 232.016 44.979 234.355 44.283 236.698 43.582 238.995 43.575 241.245 44.261 243.495 44.947 245.563 46.299 247.449 48.316V48.316C249.508 50.517 250.998 53.068 251.919 55.969V55.969L246.007 58.334C245.658 57.252 245.254 56.222 244.793 55.243 244.328 54.26 243.693 53.337 242.886 52.474ZM247.818 86.597L242.653 89.924 233.692 76.011 257.131 60.914 266.092 74.827 261.011 78.099 256.126 70.515 252.434 72.893 256.958 79.916 251.877 83.189 247.353 76.166 242.933 79.013ZM258.289 106.39V106.39C256.692 107.045 255.106 107.219 253.53 106.912 251.957 106.611 250.513 105.837 249.197 104.591 247.881 103.344 246.801 101.692 245.956 99.635V99.635C245.25 97.916 244.779 96.427 244.542 95.168 244.302 93.903 244.225 92.517 244.31 91.011V91.011L250.518 88.462C250.383 90.074 250.419 91.674 250.626 93.261 250.829 94.857 251.177 96.253 251.669 97.451V97.451C252.095 98.489 252.587 99.172 253.146 99.503 253.702 99.842 254.262 99.895 254.827 99.663V99.663C255.183 99.517 255.453 99.291 255.636 98.986 255.822 98.687 255.962 98.268 256.055 97.727 256.149 97.186 256.231 95.814 256.303 93.61V93.61C256.376 91.621 256.599 90.059 256.971 88.922 257.344 87.786 257.911 86.825 258.672 86.039 259.439 85.25 260.458 84.595 261.729 84.073V84.073C264.099 83.1 266.305 83.202 268.346 84.38 270.384 85.567 272.023 87.671 273.263 90.693V90.693C274.36 93.364 274.862 96.34 274.767 99.623V99.623L268.51 99.695C268.625 96.828 268.323 94.519 267.604 92.769V92.769C267.231 91.86 266.8 91.266 266.312 90.985 265.83 90.703 265.352 90.658 264.879 90.852V90.852C264.376 91.059 264.032 91.506 263.847 92.191 263.658 92.886 263.511 94.608 263.406 97.356V97.356C263.318 99.99 262.88 101.975 262.094 103.309 261.301 104.647 260.033 105.674 258.289 106.39Z" fill="#3587a4" data-fill-palette-color="primary"></path><path d="M3.734 143.149c0-5.966 4.836-10.802 10.802-10.803 5.966 0 10.802 4.836 10.803 10.803 0 5.966-4.836 10.802-10.803 10.802-5.966 0-10.802-4.836-10.802-10.802zM254.661 143.149c0-5.966 4.836-10.802 10.803-10.803 5.966 0 10.802 4.836 10.802 10.803 0 5.966-4.836 10.802-10.802 10.802-5.966 0-10.802-4.836-10.803-10.802z" fill="#3587a4" data-fill-palette-color="primary"></path></g></svg></g></svg></g></svg></g><g></g></svg></g><defs></defs></svg><rect width="280" height="280" fill="none" stroke="none" visibility="hidden"></rect></g></svg></g></svg>